# xmcd
#
# Track frame offsets:
#	150
#	11982
#	24885
#	37120
#	52130
#	66127
#	77980
#	89592
#	97470
#	106892
#	118555
#	131722
#	145085
#	155987
#	166822
#	175835
#	188402
#	199147
#	214177
#	223715
#
# Disc length: 3296 seconds
#
# Revision: 1
# Processed by: cddbd v1.5.1PL2 Copyright (c) Steve Scherf et al.
# Submitted via: audiograbber 1.83.01
#
DISCID=2c0cde14
DTITLE=Johnny Mc Evoy - Sings Country And Irish
DYEAR=1997
DGENRE=Country And Irish
TTITLE0=I Still Miss Someone
TTITLE1=You Win Again
TTITLE2=All I Have To Offer You Is Me
TTITLE3=Hickory Wind
TTITLE4=Happines Is You
TTITLE5=I Don't Love You Anymore
TTITLE6=A Million Years Or So
TTITLE7=Time And Time Again
TTITLE8=Blue Canadian Rockies
TTITLE9=Mursheen Durkin
TTITLE10=Paddy's Green Shamrock Shore
TTITLE11=Nora
TTITLE12=Tarry Flynn
TTITLE13=Slieve Galleon Braes 
TTITLE14=Traveling Man
TTITLE15=Maid Of The Sweet Brown Knowe
TTITLE16=Come Up The Stairs
TTITLE17=Spancil Hill
TTITLE18=The Shores Of Amerkay
TTITLE19=Carrickfergus
EXTD=
EXTT0=
EXTT1=
EXTT2=
EXTT3=
EXTT4=
EXTT5=
EXTT6=
EXTT7=
EXTT8=
EXTT9=
EXTT10=
EXTT11=
EXTT12=
EXTT13=
EXTT14=
EXTT15=
EXTT16=
EXTT17=
EXTT18=
EXTT19=
PLAYORDER=
